<svg width="1945" height="969" fill="none" xmlns="http://www.w3.org/2000/svg"><path opacity=".1" d="M1507.54 157.296a100 100 0 00-75.85-45.347L156.952 8.306c-56.008-4.554-104.77 37.92-107.945 94.023L6.412 855.294c-3.403 60.138 46.74 109.612 106.827 105.404L1606.38 856.116c151.88-10.638 236.65-180.33 153.94-308.159l-252.78-390.661z" fill="#2F80ED"/><path d="M1463.15 218.555a100.02 100.02 0 00-74.81-44.161L255.758 79.014c-55.873-4.705-104.695 37.442-108.196 93.404l-37.57 600.55c-3.765 60.178 46.185 109.976 106.351 106.029l1357.577-89.066c115.16-7.556 179-136.894 114.97-232.908l-225.74-338.468z" fill="#2F80ED"/></svg>