<svg width="1944" height="1847" fill="none" xmlns="http://www.w3.org/2000/svg"><path opacity=".1" d="M1499.96 278.481c-11.97-35.28-42.56-60.982-79.37-66.691L166.707 17.355C107.274 8.14 53.21 53.093 51.427 113.21L3.49 1729.33c-1.829 61.66 52.055 110.25 113.197 102.08l1586.263-211.9c124.85-16.67 203.39-143.21 162.92-262.49L1499.96 278.481z" fill="#2F80ED"/><path d="M1455.19 373.211c-11.5-35.254-41.56-61.253-78.1-67.547L267.458 114.534c-59.896-10.317-115.069 34.742-116.927 95.492L106.605 1646.15c-1.888 61.72 52.055 110.38 113.253 102.17l1434.652-192.51c92.87-12.47 151.71-106.09 122.66-195.17l-321.98-987.429z" fill="#2F80ED"/></svg>