<svg width="54" height="54" fill="none" xmlns="http://www.w3.org/2000/svg"><path d="M6.284 6.297v46.777a.9.9 0 00.9.9h34.183a.9.9 0 00.9-.9V15.293c0-.02-.01-.037-.012-.057a.847.847 0 00-.046-.23c-.01-.03-.017-.058-.03-.086a.89.89 0 00-.18-.263L33.004 5.66a.873.873 0 00-.347-.21.891.891 0 00-.234-.046c-.015.003-.032-.007-.051-.007H7.184a.9.9 0 00-.9.9zm32.911 8.096h-5.924V8.47l5.924 5.924zM8.083 7.197h23.389v8.096a.9.9 0 00.9.9h8.095v35.981H8.083V7.197z" fill="#333"/><path d="M44.066 46.776v1.8h2.698a.9.9 0 00.9-.9V.9a.9.9 0 00-.9-.9H12.581a.9.9 0 00-.9.9v2.698h1.8v-1.8h32.383v44.978h-1.798z" fill="#333"/><path d="M13.48 17.99h21.59v1.8H13.48v-1.8zm0-5.396h7.197v1.799h-7.196v-1.8zm0 10.794h14.394v1.8H13.48v-1.8zm16.193 0h5.397v1.8h-5.397v-1.8zM13.48 28.786h21.59v1.799H13.48v-1.8zm0 10.794h21.59v1.8H13.48v-1.8zm8.096-5.397H35.07v1.799H21.576v-1.799zm-8.096 0h6.298v1.799H13.48v-1.799zm0 10.795h3.6v1.799h-3.6v-1.799zm5.398 0H35.07v1.799H18.878v-1.799z" fill="#333"/></svg>