<?xml version="1.0" encoding="UTF-8" standalone="no"?>
<!DOCTYPE svg PUBLIC "-//W3C//DTD SVG 1.1//EN" "http://www.w3.org/Graphics/SVG/1.1/DTD/svg11.dtd">
<svg version="1.1" xmlns="http://www.w3.org/2000/svg" xmlns:xlink="http://www.w3.org/1999/xlink" preserveAspectRatio="xMidYMid meet" viewBox="0 0 32 32" width="32" height="32"><defs><path d="M26.23 5C26.65 5 27 5.35 27 5.77C27 10.02 27 21.98 27 26.23C27 26.65 26.65 27 26.23 27C21.98 27 10.02 27 5.77 27C5.35 27 5 26.65 5 26.23C5 21.98 5 10.02 5 5.77C5 5.35 5.35 5 5.77 5C10.02 5 21.98 5 26.23 5Z" id="b75JDDhvt"></path><path d="M32 8.92C32 13.84 28 17.83 23.08 17.83C18.16 17.83 14.17 13.84 14.17 8.92C14.17 4 18.16 0 23.08 0C28 0 32 4 32 8.92Z" id="bgtmYW5iS"></path></defs><g><g><g><use xlink:href="#b75JDDhvt" opacity="1" fill="#2f80ed" fill-opacity="1"></use><g><use xlink:href="#b75JDDhvt" opacity="1" fill-opacity="0" stroke="#2f80ed" stroke-width="10" stroke-opacity="1"></use></g></g><g><use xlink:href="#bgtmYW5iS" opacity="1" fill="#55cdb8" fill-opacity="1"></use></g></g></g></svg>