<svg width="1546" height="1228" viewBox="0 0 1546 1228" fill="none" xmlns="http://www.w3.org/2000/svg">
<path d="M50.7008 749.776C51.7734 793.129 80.6676 830.851 122.246 843.178L1023.8 1110.46C1074.89 1125.61 1128.88 1098.03 1146.56 1047.76L1419.26 272.36C1441.23 209.898 1397.53 143.717 1331.45 139.396L197.304 65.214C109.324 59.4595 35.3793 130.463 37.5599 218.604L50.7008 749.776Z" fill="#2F80ED"/>
<path d="M3.46756 783.08C1.42094 828.185 29.8524 869.066 72.8496 882.844L1057.46 1198.35C1108.99 1214.86 1164.31 1187.38 1182.29 1136.35L1502.33 227.945C1524.29 165.614 1480.83 99.5024 1414.9 94.9526L192.211 10.5734C108.185 4.77454 35.8565 69.2786 32.0386 153.418L3.46756 783.08Z" fill="#2F80ED" fill-opacity="0.1"/>
</svg>
