<svg width="1722" height="1295" viewBox="0 0 1722 1295" fill="none" xmlns="http://www.w3.org/2000/svg">
<path d="M309.701 777.776C310.773 821.129 339.668 858.851 381.246 871.178L1282.8 1138.46C1333.89 1153.61 1387.88 1126.03 1405.56 1075.76L1678.26 300.36C1700.23 237.898 1656.53 171.717 1590.45 167.396L456.304 93.214C368.324 87.4595 294.379 158.463 296.56 246.604L309.701 777.776Z" fill="#2F80ED"/>
<path d="M3.2272 831.392C1.31515 875.829 28.9835 916.189 71.1214 930.428L1054.94 1262.88C1107.39 1280.6 1164.25 1252.34 1181.8 1199.83L1505.21 231.755C1525.89 169.862 1482.71 105.068 1417.63 100.332L193.107 11.2153C108.745 5.07581 35.9939 69.8649 32.3578 154.371L3.2272 831.392Z" fill="#2F80ED" fill-opacity="0.1"/>
</svg>
