<svg width="1440" height="1228" viewBox="0 0 1440 1228" fill="none" xmlns="http://www.w3.org/2000/svg">
<path d="M-40.2992 749.776C-39.2266 793.129 -10.3324 830.851 31.246 843.178L932.799 1110.46C983.889 1125.61 1037.88 1098.03 1055.56 1047.76L1328.26 272.36C1350.23 209.898 1306.53 143.717 1240.45 139.396L106.304 65.214C18.324 59.4595 -55.6207 130.463 -53.4401 218.604L-40.2992 749.776Z" fill="#2F80ED"/>
<path d="M-87.5324 783.08C-89.5791 828.185 -61.1476 869.066 -18.1504 882.844L966.458 1198.35C1017.99 1214.86 1073.31 1187.38 1091.29 1136.35L1411.33 227.945C1433.29 165.614 1389.83 99.5024 1323.9 94.9526L101.211 10.5734C17.1851 4.77454 -55.1435 69.2786 -58.9614 153.418L-87.5324 783.08Z" fill="#2F80ED" fill-opacity="0.1"/>
</svg>
