<svg width="1440" height="970" viewBox="0 0 1440 970" fill="none" xmlns="http://www.w3.org/2000/svg">
<path opacity="0.1" d="M1100.65 157.855C1083.78 131.781 1055.75 115.025 1024.8 112.508L-249.941 8.86466C-305.949 4.31093 -354.712 46.7851 -357.885 102.888L-400.481 855.853C-403.883 915.99 -353.74 965.465 -293.654 961.257L1199.48 856.675C1351.37 846.037 1436.14 676.345 1353.43 548.515L1100.65 157.855Z" fill="#2F80ED"/>
<path d="M1056.25 219.114C1039.35 193.767 1011.81 177.509 981.452 174.952L-151.135 79.5732C-207.008 74.8678 -255.83 117.015 -259.331 172.977L-296.901 773.526C-300.666 833.704 -250.716 883.503 -190.55 879.556L1167.02 790.489C1282.18 782.934 1346.03 653.596 1281.99 557.582L1056.25 219.114Z" fill="#2F80ED"/>
</svg>
