<svg width="1945" height="969" viewBox="0 0 1945 969" fill="none" xmlns="http://www.w3.org/2000/svg">
<path opacity="0.1" d="M1507.54 157.296C1490.67 131.222 1462.64 114.466 1431.69 111.949L156.952 8.30582C100.944 3.75209 52.1812 46.2263 49.0074 102.329L6.4115 855.294C3.0094 915.432 53.1527 964.906 113.239 960.698L1606.38 856.116C1758.26 845.478 1843.03 675.786 1760.32 547.957L1507.54 157.296Z" fill="#2F80ED"/>
<path d="M1463.15 218.555C1446.24 193.208 1418.7 176.95 1388.34 174.394L255.758 79.0144C199.885 74.3091 151.063 116.456 147.562 172.418L109.992 772.968C106.227 833.146 156.177 882.944 216.343 878.997L1573.92 789.931C1689.08 782.375 1752.92 653.037 1688.89 557.023L1463.15 218.555Z" fill="#2F80ED"/>
</svg>
