<svg width="1944" height="1847" viewBox="0 0 1944 1847" fill="none" xmlns="http://www.w3.org/2000/svg">
<path opacity="0.1" d="M1499.96 278.481C1487.99 243.201 1457.4 217.499 1420.59 211.79L166.707 17.3553C107.274 8.13923 53.2103 53.0927 51.4271 113.209L3.49036 1729.33C1.6615 1790.99 55.5455 1839.58 116.687 1831.41L1702.95 1619.51C1827.8 1602.84 1906.34 1476.3 1865.87 1357.02L1499.96 278.481Z" fill="#2F80ED"/>
<path d="M1455.19 373.211C1443.69 337.957 1413.63 311.958 1377.09 305.664L267.458 114.534C207.562 104.217 152.389 149.276 150.531 210.026L106.605 1646.15C104.717 1707.87 158.66 1756.53 219.858 1748.32L1654.51 1555.81C1747.38 1543.34 1806.22 1449.72 1777.17 1360.64L1455.19 373.211Z" fill="#2F80ED"/>
</svg>
