<svg width="1944" height="2368" fill="none" xmlns="http://www.w3.org/2000/svg"><path opacity=".1" d="M1496.45 343.771c-9.77-36.921-39.71-65.052-77.17-72.499L171.505 23.205C110.581 11.093 53.469 56.872 52.033 118.972L2.808 2246.63c-1.455 62.9 54.842 111.5 116.854 100.88l1608.818-275.54c115.79-19.83 189.64-134.72 159.58-248.29L1496.45 343.771z" fill="#2F80ED"/><path d="M1451.69 464.813c-9.31-36.611-38.46-64.848-75.35-72.991L272.678 148.188c-61.462-13.568-120.026 32.339-121.528 95.263L105.901 2139.45c-1.503 62.96 54.858 111.62 116.92 100.94l1450.209-249.4c86.23-14.83 141.52-100.02 119.95-184.82L1451.69 464.813z" fill="#2F80ED"/></svg>