<svg width="1440" height="1228" fill="none" xmlns="http://www.w3.org/2000/svg"><path d="M-40.3 749.776c1.073 43.353 29.968 81.075 71.546 93.402l901.553 267.282c51.09 15.15 105.081-12.43 122.761-62.7l272.7-775.4c21.97-62.462-21.73-128.643-87.81-132.964L106.304 65.214c-87.98-5.755-161.925 65.249-159.744 153.39l13.14 531.172z" fill="#2F80ED"/><path d="M-87.532 783.08c-2.047 45.105 26.384 85.986 69.382 99.764l984.608 315.506c51.532 16.51 106.852-10.97 124.832-62l320.04-908.405c21.96-62.331-21.5-128.443-87.43-132.992L101.211 10.573C17.185 4.775-55.144 69.28-58.961 153.418L-87.532 783.08z" fill="#2F80ED" fill-opacity=".1"/></svg>