<svg width="1440" height="734" fill="none" xmlns="http://www.w3.org/2000/svg"><path d="M498.255-414.091c23.15-38.879 69.522-57.368 113.072-45.082l888.833 250.741c39.44 11.127 68.11 45.196 72.32 85.962l76.19 737.174c6.42 62.096-45 114.828-107.24 109.978L217.565 621.519C69.717 609.998-14.611 447.219 61.26 319.8l436.995-733.891z" fill="#2F80ED" fill-opacity=".1"/><path d="M303.731 16.201a100 100 0 0170.703-47.2L1459.5-194.57c58.41-8.804 111.68 34.663 114.77 93.648l34.75 662.86c3.17 60.396-47.59 109.757-107.87 104.914L226.239 564.422c-111.104-8.926-174.007-131.618-116.402-227.041l193.894-321.18z" fill="#2F80ED"/></svg>