<svg width="83" height="70" fill="none" xmlns="http://www.w3.org/2000/svg"><circle opacity=".1" cx="48" cy="35" r="35" fill="#2F80ED"/><path d="M60.016 33.516h-.984v-6.072a7.64 7.64 0 00-2.256-5.446 7.652 7.652 0 00-5.447-2.256h-1.152v-1.065c2.349-1.363 3.936-3.9 3.936-6.806 0-4.34-3.531-7.871-7.871-7.871s-7.871 3.531-7.871 7.871c0 2.905 1.587 5.443 3.935 6.806v1.065h-1.152c-2.057 0-3.991.8-5.446 2.256a7.646 7.646 0 00-2.256 5.446v6.072h-1.968v-2.951a.984.984 0 00-.984-.984h-2.952v-.338c0-2.869.969-5.587 2.742-7.79.366.162.769.257 1.194.257a2.955 2.955 0 002.951-2.952 2.955 2.955 0 00-2.951-2.951 2.955 2.955 0 00-2.952 2.951c0 .48.126.926.33 1.327a14.313 14.313 0 00-3.281 9.158v.338h-2.952a.984.984 0 00-.984.983v2.952h-.984a.984.984 0 00-.984.984v3.935c0 .545.441.984.984.984h.984v5.904a4.925 4.925 0 00-4.92 4.919c0 1.461.654 2.76 1.668 3.663a7.91 7.91 0 00-3.635 3.358 7.92 7.92 0 00-3.635-3.358c1.014-.902 1.667-2.202 1.667-3.663a4.925 4.925 0 00-4.919-4.92 4.925 4.925 0 00-4.92 4.92c0 1.461.654 2.76 1.668 3.663C1.9 55.145 0 57.885 0 61.065v2.951c0 .544.44.984.984.984h41.322c.544 0 .984-.44.984-.984v-.984h14.758c.544 0 .984-.44.984-.984V39.42h.984c.543 0 .984-.44.984-.983V34.5a.984.984 0 00-.984-.984zM31.484 17.774a.985.985 0 010 1.968.985.985 0 010-1.968zm25.58 9.67v6.072h-1.967v-3.935h-1.968v3.935h-5.903v-7.263l2.512 1.256a.973.973 0 00.816.03.986.986 0 00.557-.598l1.68-5.037a5.698 5.698 0 012.595 1.486 5.695 5.695 0 011.678 4.054zM42.799 21.71l1.95 2.598-1.867.934-1.177-3.532h1.094zm6.887 0h1.096l-1.177 3.532-1.867-.934 1.948-2.598zM46.242 5.968c2.893 0 5.301 2.092 5.803 4.842a8.449 8.449 0 01-4.937-2.417l-.168-.17a1.011 1.011 0 00-1.394 0l-.167.169a8.442 8.442 0 01-4.938 2.417c.5-2.749 2.908-4.841 5.8-4.841zm-5.83 6.835a10.385 10.385 0 005.83-2.526 10.388 10.388 0 005.83 2.526 5.912 5.912 0 01-5.83 4.971 5.912 5.912 0 01-5.83-4.971zm5.83 6.939c.68 0 1.337-.096 1.968-.259v.915l-1.968 2.623-1.968-2.623v-.915c.63.163 1.287.259 1.968.259zm-10.823 7.702c0-1.532.597-2.973 1.68-4.055a5.708 5.708 0 012.595-1.486l1.68 5.037a.986.986 0 001.372.57l2.512-1.257v7.263h-5.903v-3.935h-1.968v3.935H35.42v-6.072zm-11.806 4.104h5.903v1.968h-5.903v-1.968zm-4.92 18.694a2.955 2.955 0 012.952-2.952 2.955 2.955 0 012.952 2.952 2.955 2.955 0 01-2.952 2.952 2.955 2.955 0 01-2.951-2.952zm-13.774 0a2.955 2.955 0 012.952-2.952 2.955 2.955 0 012.952 2.952 2.955 2.955 0 01-2.952 2.952 2.955 2.955 0 01-2.952-2.952zM1.968 61.065A5.91 5.91 0 017.87 55.16a5.91 5.91 0 015.903 5.904v1.967H1.968v-1.967zm13.774 0a5.91 5.91 0 015.903-5.904 5.91 5.91 0 015.903 5.904v1.967H15.742v-1.967zm25.58 1.967H29.517v-1.967a5.91 5.91 0 015.903-5.904 5.91 5.91 0 015.904 5.904v1.967zm-8.854-12.79a2.955 2.955 0 012.951-2.952 2.955 2.955 0 012.952 2.952 2.955 2.955 0 01-2.952 2.952 2.955 2.955 0 01-2.951-2.952zm24.596 10.823H43.29c0-3.18-1.899-5.92-4.619-7.16 1.014-.902 1.668-2.202 1.668-3.663a4.925 4.925 0 00-4.92-4.92 4.925 4.925 0 00-4.919 4.92c0 1.461.653 2.76 1.668 3.663a7.91 7.91 0 00-3.636 3.358 7.921 7.921 0 00-3.635-3.358c1.014-.902 1.668-2.202 1.668-3.663a4.922 4.922 0 00-2.952-4.502v-6.32h33.451v21.645zm1.968-23.613H21.645v-1.968h37.387v1.968zM2.952 23.677h15.742a2.955 2.955 0 002.951-2.951v-1.56l3.647-3.648a.983.983 0 000-1.391l-3.647-3.647V8.92a2.955 2.955 0 00-2.951-2.952H2.951A2.955 2.955 0 000 8.919v11.807a2.955 2.955 0 002.952 2.951zM1.968 8.92c0-.543.442-.983.984-.983h15.742c.542 0 .983.44.983.983v1.968a.98.98 0 00.289.696l3.24 3.24-3.24 3.24a.98.98 0 00-.289.695v1.968a.985.985 0 01-.983.984H2.951a.985.985 0 01-.984-.984V8.919z" fill="#868686"/><path d="M3.935 9.903H17.71v1.968H3.935V9.903zm0 7.871H17.71v1.968H3.935v-1.968zm1.968-3.935h9.839v1.967H5.903V13.84z" fill="#868686"/></svg>