<svg width="1440" height="970" fill="none" xmlns="http://www.w3.org/2000/svg"><path opacity=".1" d="M1100.65 157.855a100 100 0 00-75.85-45.347L-249.941 8.865c-56.008-4.554-104.771 37.92-107.944 94.023l-42.596 752.965c-3.402 60.137 46.741 109.612 106.827 105.404L1199.48 856.675c151.89-10.638 236.66-180.33 153.95-308.16l-252.78-390.66z" fill="#2F80ED"/><path d="M1056.25 219.114a99.987 99.987 0 00-74.798-44.162L-151.135 79.573c-55.873-4.705-104.695 37.442-108.196 93.404l-37.57 600.549c-3.765 60.178 46.185 109.977 106.351 106.03l1357.57-89.067c115.16-7.555 179.01-136.893 114.97-232.907l-225.74-338.468z" fill="#2F80ED"/></svg>