<svg width="1944" height="2368" viewBox="0 0 1944 2368" fill="none" xmlns="http://www.w3.org/2000/svg">
<path opacity="0.1" d="M1496.45 343.771C1486.68 306.85 1456.74 278.719 1419.28 271.272L171.505 23.2048C110.581 11.0926 53.4694 56.8721 52.0327 118.972L2.80798 2246.63C1.35278 2309.53 57.6495 2358.13 119.662 2347.51L1728.48 2071.97C1844.27 2052.14 1918.12 1937.25 1888.06 1823.68L1496.45 343.771Z" fill="#2F80ED"/>
<path d="M1451.69 464.813C1442.38 428.202 1413.23 399.965 1376.34 391.822L272.678 148.188C211.216 134.62 152.652 180.527 151.15 243.451L105.901 2139.45C104.398 2202.41 160.759 2251.07 222.821 2240.39L1673.03 1990.99C1759.26 1976.16 1814.55 1890.97 1792.98 1806.17L1451.69 464.813Z" fill="#2F80ED"/>
</svg>
