<svg width="1546" height="1228" fill="none" xmlns="http://www.w3.org/2000/svg"><path d="M50.7 749.776c1.073 43.353 29.968 81.075 71.546 93.402L1023.8 1110.46c51.09 15.15 105.08-12.43 122.76-62.7l272.7-775.4c21.97-62.462-21.73-128.643-87.81-132.964L197.304 65.214c-87.98-5.755-161.925 65.249-159.744 153.39L50.7 749.776z" fill="#2F80ED"/><path d="M3.468 783.08c-2.047 45.105 26.384 85.986 69.382 99.764l984.61 315.506c51.53 16.51 106.85-10.97 124.83-62l320.04-908.405c21.96-62.331-21.5-128.443-87.43-132.992L192.211 10.573C108.185 4.775 35.856 69.28 32.039 153.418L3.468 783.08z" fill="#2F80ED" fill-opacity=".1"/></svg>