<svg width="1722" height="1295" fill="none" xmlns="http://www.w3.org/2000/svg"><path d="M309.701 777.776c1.072 43.353 29.967 81.075 71.545 93.402L1282.8 1138.46c51.09 15.15 105.08-12.43 122.76-62.7l272.7-775.4c21.97-62.462-21.73-128.643-87.81-132.964L456.304 93.214c-87.98-5.754-161.925 65.249-159.744 153.39l13.141 531.172z" fill="#2F80ED"/><path d="M3.227 831.392c-1.912 44.437 25.756 84.797 67.894 99.036l983.819 332.452c52.45 17.72 109.31-10.54 126.86-63.05l323.41-968.075c20.68-61.893-22.5-126.687-87.58-131.423L193.107 11.215c-84.362-6.14-157.113 58.65-160.75 143.156L3.228 831.392z" fill="#2F80ED" fill-opacity=".1"/></svg>